HIERARCHY
ROOT Hip
{
	OFFSET	0.0000	0.0000	0.0000
	CHANNELS 6 Xposition Yposition Zposition Xrotation Yrotation Zrotation
	JOINT LowerSpine
	{
		OFFSET	0.0000	8.3453	-5.1292
		CHANNELS 3 Xrotation Yrotation Zrotation
		JOINT MiddleSpine
		{
			OFFSET	10.8569	0.0000	0.0000
			CHANNELS 3 Xrotation Yrotation Zrotation
			JOINT Chest
			{
				OFFSET	15.2984	0.0000	0.0000
				CHANNELS 3 Xrotation Yrotation Zrotation
				JOINT Neck
				{
					OFFSET	25.6618	-0.5986	0.0000
					CHANNELS 3 Xrotation Yrotation Zrotation
					JOINT Head
					{
						OFFSET	8.8829	0.0000	0.0000
						CHANNELS 3 Xrotation Yrotation Zrotation
						End Site
						{
							OFFSET	19.7399	0.0000	0.0000
						}
					}
				}
				JOINT RClavicle
				{
					OFFSET	23.6878	0.0000	3.1584
					CHANNELS 3 Xrotation Yrotation Zrotation
					JOINT RShoulder
					{
						OFFSET	-15.5945	-3.9480	0.9870
						CHANNELS 3 Xrotation Yrotation Zrotation
						JOINT RForearm
						{
							OFFSET	-31.3370	0.0000	0.1974
							CHANNELS 3 Xrotation Yrotation Zrotation
							JOINT RHand
							{
								OFFSET	-26.4021	0.0000	0.0000
								CHANNELS 3 Xrotation Yrotation Zrotation
								End Site
								{
									OFFSET	-15.7919	-0.9870	0.0000
								}
							}
						}
					}
				}
				JOINT LClavicle
				{
					OFFSET	23.6878	0.0000	-3.1584
					CHANNELS 3 Xrotation Yrotation Zrotation
					JOINT LShoulder
					{
						OFFSET	-15.5945	-3.9480	-0.9870
						CHANNELS 3 Xrotation Yrotation Zrotation
						JOINT LForearm
						{
							OFFSET	-31.3370	0.0000	-0.1974
							CHANNELS 3 Xrotation Yrotation Zrotation
							JOINT LHand
							{
								OFFSET	-26.4021	0.0000	0.0000
								CHANNELS 3 Xrotation Yrotation Zrotation
								End Site
								{
									OFFSET	-15.7919	-0.9870	0.0000
								}
							}
						}
					}
				}
			}
		}
	}
	JOINT RThigh
	{
		OFFSET	-8.8829	0.4481	0.0000
		CHANNELS 3 Xrotation Yrotation Zrotation
		JOINT RShin
		{
			OFFSET	43.1316	0.0000	-0.4935
			CHANNELS 3 Xrotation Yrotation Zrotation
			JOINT RFoot
			{
				OFFSET	0.0000	-44.7256	-0.4047
				CHANNELS 3 Xrotation Yrotation Zrotation
				JOINT RToe
				{
					OFFSET	0.0000	-3.9332	12.1953
					CHANNELS 3 Xrotation Yrotation Zrotation
					End Site
					{
						OFFSET	6.7725	0.0000	0.0000
					}
				}
			}
		}
	}
	JOINT LThigh
	{
		OFFSET	8.8829	0.4481	0.0000
		CHANNELS 3 Xrotation Yrotation Zrotation
		JOINT LShin
		{
			OFFSET	43.1316	0.0000	0.4935
			CHANNELS 3 Xrotation Yrotation Zrotation
			JOINT LFoot
			{
				OFFSET	0.0000	-44.7256	0.4047
				CHANNELS 3 Xrotation Yrotation Zrotation
				JOINT LToe
				{
					OFFSET	0.0000	-3.9332	-12.1953
					CHANNELS 3 Xrotation Yrotation Zrotation
					End Site
					{
						OFFSET	6.7725	0.0000	0.0000
					}
				}
			}
		}
	}
}
MOTION
Frames:	13
Frame Time: 0.0169491000
	0.0000	93.1363	0.0000	0.000000	0.000000	0.000000	-89.999990	-90.000000	0.000000	0.000000	0.000000	0.000000	0.000000	0.000000	0.000000	0.000000	0.000000	0.000000	0.000000	0.000000	0.000000	89.999990	0.000003	-89.999990	0.129889	-2.857029	4.156837	0.255388	4.965908	-5.884634	0.000000	0.000000	0.000000	-89.999990	-0.000003	-89.999990	-0.129889	2.857029	4.156894	-0.255388	-4.965908	-5.884634	0.000000	0.000000	0.000000	-89.999990	90.000000	0.000000	89.999990	-0.000003	89.999990	0.000000	0.000000	0.000000	180.000000	90.000000	0.000000	-89.999990	90.000000	0.000000	-90.000000	-0.000003	89.999990	0.000000	0.000000	0.000000	180.000000	-90.000000	0.000000
	14.8667	92.9298	-2.4099	-2.657786	0.921602	0.616564	-89.999990	-90.000000	0.000000	0.305997	-0.374051	0.477461	1.032016	-1.237170	1.599302	0.000000	0.000000	0.000000	0.000000	0.000000	0.000000	89.997200	-0.070868	-89.047320	2.995674	5.537910	3.191179	0.359767	5.973165	-5.894583	0.000000	0.000000	0.000000	-89.996920	0.080140	-88.922800	14.604510	-5.041098	5.993305	-0.476010	-7.090518	-5.907807	0.000000	0.000000	0.000000	39.315990	88.994750	-122.664100	89.961430	4.299032	89.997050	-8.054776	-0.219255	-0.085374	180.000000	90.000000	0.000000	-129.098400	89.025570	45.496720	-89.968990	-3.456811	89.997400	6.107000	-0.096362	0.045525	180.100000	-90.000000	0.000000
	14.6920	92.9349	-2.9447	-2.744405	1.003242	0.684113	-89.999990	-90.000000	0.000000	0.263417	-0.320994	0.399837	0.885756	-1.061126	1.338481	0.000000	0.000000	0.000000	0.000000	0.000000	0.000000	89.997160	-0.071791	-89.034900	-7.817408	5.409556	5.134090	0.546400	7.764533	-5.916907	0.000000	0.000000	0.000000	-89.997600	0.058576	-89.212560	10.657230	-5.221467	6.896669	-0.754019	-9.739298	-5.948502	0.000000	0.000000	0.000000	49.416450	89.050610	-132.883100	89.963780	4.036355	89.997140	-7.510225	0.531775	0.285772	179.985700	90.000000	0.000000	-81.076610	89.167370	-2.943750	-89.970370	-3.302600	89.997470	5.509987	1.280261	-0.528627	180.287300	-90.000000	0.000000
	14.5236	92.9526	-3.4468	-2.755832	1.264862	0.777772	-89.999990	-90.000000	0.000000	0.211827	-0.268221	0.337346	0.710002	-0.884984	1.128049	0.000000	0.000000	0.000000	0.000000	0.000000	0.000000	89.997380	-0.065320	-89.121890	-16.605420	4.489730	6.855017	0.818057	10.343920	-5.959668	0.000000	0.000000	0.000000	-89.998140	0.043522	-89.414920	8.692259	-5.451140	7.772322	-1.022950	-12.262140	-5.999832	0.000000	0.000000	0.000000	73.806590	89.201700	-157.310200	89.968640	3.494194	89.997380	-6.839955	1.237466	0.634016	179.934400	90.000000	0.000000	-75.438890	89.009610	-9.117290	-89.972270	-3.091407	89.997580	4.747757	2.300162	-0.941617	180.579800	-90.000000	0.000000
	14.4156	92.9714	-3.7608	-2.670665	1.603337	0.866649	-89.999990	-90.000000	0.000000	0.149494	-0.214698	0.293767	0.499064	-0.705641	0.980337	0.000000	0.000000	0.000000	0.000000	0.000000	0.000000	89.997890	-0.050133	-89.326010	-20.954510	3.201672	7.931037	1.104902	13.021840	-6.017769	0.000000	0.000000	0.000000	-89.998400	0.036571	-89.508290	8.325106	-5.478017	8.171119	-1.214298	-14.028660	-6.043354	0.000000	0.000000	0.000000	95.510730	89.197310	-179.087600	89.972360	3.079928	89.997590	-6.393338	1.719517	0.872813	179.880200	90.000000	0.000000	-85.264230	88.911990	0.189520	-89.972490	-3.067793	89.997600	4.075385	2.509112	-1.023051	181.011200	-90.000000	0.000000
	14.3705	92.9781	-3.9165	-2.556389	1.978242	0.928811	-89.999990	-90.000000	0.000000	0.081701	-0.158786	0.262927	0.271120	-0.519008	0.874853	0.000000	0.000000	0.000000	0.000000	0.000000	0.000000	89.998630	-0.030738	-89.586690	-22.153050	2.176253	8.560223	1.281898	14.646430	-6.060095	0.000000	0.000000	0.000000	-89.998460	0.035127	-89.527750	8.399748	-5.474614	8.119063	-1.303624	-14.844250	-6.065624	0.000000	0.000000	0.000000	99.768340	89.168370	176.560000	89.973930	2.904089	89.997680	-6.324179	1.789822	0.903785	179.890100	90.000000	0.000000	-88.757860	88.839270	3.103521	-89.967830	-3.588270	89.997330	3.898290	2.051605	-0.847387	181.306100	-90.000000	0.000000
	14.3581	92.9845	-4.0054	-2.487383	2.429827	0.979051	-89.999990	-90.000000	0.000000	0.020004	-0.103521	0.239955	0.065455	-0.337058	0.796211	0.000000	0.000000	0.000000	0.000000	0.000000	0.000000	89.999370	-0.013470	-89.818790	-22.488650	1.473121	9.001154	1.340837	15.182230	-6.075265	0.000000	0.000000	0.000000	-89.998410	0.036402	-89.510640	8.483377	-5.748840	7.973849	-1.340521	-15.179360	-6.075181	0.000000	0.000000	0.000000	97.868190	89.173290	178.520000	89.976310	2.638982	89.997840	-6.286199	1.465890	0.734465	179.946000	90.000000	0.000000	-88.634150	88.795270	2.467293	-89.961950	-4.243242	89.997060	3.988148	1.430357	-0.592280	181.414800	-90.000000	0.000000
	14.3456	93.0019	-4.0280	-2.535283	2.906208	1.006134	-89.999990	-90.000000	0.000000	-0.026076	-0.052236	0.219161	-0.086398	-0.171522	0.726790	0.000000	0.000000	0.000000	0.000000	0.000000	0.000000	89.999850	-0.003028	-89.959200	-22.830530	0.776608	9.323539	1.393681	15.660300	-6.089318	0.000000	0.000000	0.000000	-89.998350	0.038064	-89.488280	8.549641	-6.231242	7.896971	-1.377019	-15.509790	-6.084838	0.000000	0.000000	0.000000	96.396240	89.220320	-179.684000	89.980650	2.154570	89.998150	-5.983529	0.944228	0.469479	179.945300	90.000000	0.000000	-89.218580	88.745570	2.844563	-89.958810	-4.594449	89.996940	4.012019	1.043795	-0.425186	181.461800	-90.000000	0.000000
	14.3262	93.0185	-3.9846	-2.701653	3.287925	1.008323	-89.999990	-90.000000	0.000000	-0.051055	-0.008112	0.195446	-0.167539	-0.031209	0.650103	0.000000	0.000000	0.000000	0.000000	0.000000	0.000000	90.000060	0.001583	-90.021220	-23.177250	0.082480	9.534698	1.469180	16.339430	-6.110127	0.000000	0.000000	0.000000	-89.998320	0.038696	-89.479800	8.599079	-6.719978	7.864916	-1.423649	-15.930420	-6.097472	0.000000	0.000000	0.000000	95.149890	89.291450	-178.020400	89.984100	1.770317	89.998440	-5.661542	0.501816	0.257594	179.842500	90.000000	0.000000	-90.633130	88.679630	4.300085	-89.957180	-4.775608	89.996880	4.070372	0.852049	-0.338546	181.370400	-90.000000	0.000000
	14.3386	93.0297	-3.9521	-2.892595	3.541148	1.072617	-89.999990	-90.000000	0.000000	-0.053963	0.025812	0.165924	-0.176203	0.077104	0.555009	0.000000	0.000000	0.000000	0.000000	0.000000	0.000000	89.999760	-0.004616	-89.937890	-23.654830	-0.314717	9.510905	1.489162	16.518380	-6.115779	0.000000	0.000000	0.000000	-89.998480	0.034729	-89.533150	8.572845	-7.136159	8.070812	-1.529919	-16.882370	-6.127489	0.000000	0.000000	0.000000	93.827220	89.254850	-176.384700	89.985510	1.612538	89.998560	-5.554401	0.361288	0.184961	179.760400	90.000000	0.000000	-91.565620	88.698940	5.363195	-89.956720	-4.828120	89.996870	4.057075	0.619763	-0.234892	181.320700	-90.000000	0.000000
	14.3962	93.0477	-3.9594	-3.063801	3.783239	1.223922	-89.999990	-90.000000	0.000000	-0.038491	0.047187	0.130110	-0.125075	0.147794	0.437382	0.000000	0.000000	0.000000	0.000000	0.000000	0.000000	89.999210	-0.017067	-89.770530	-24.301780	-0.467196	9.176477	1.449040	16.158710	-6.104493	0.000000	0.000000	0.000000	-89.998600	0.031716	-89.573630	8.435970	-7.563377	8.729550	-1.788831	-19.160940	-6.207606	0.000000	0.000000	0.000000	92.460740	89.092250	-174.636600	89.988920	1.233054	89.998860	-5.399429	0.345599	0.144260	179.771900	90.000000	0.000000	-90.917850	88.829980	4.874399	-89.957550	-4.735390	89.996890	3.804703	0.261203	-0.084383	181.552500	-90.000000	0.000000
	14.4437	93.0726	-3.9685	-3.214259	4.069553	1.352666	-89.999990	-90.000000	0.000000	-0.012427	0.055393	0.088823	-0.039348	0.178132	0.298907	0.000000	0.000000	0.000000	0.000000	0.000000	0.000000	89.998530	-0.033290	-89.552430	-25.002950	-0.707472	8.667475	1.434413	16.027260	-6.100438	0.000000	0.000000	0.000000	-89.998740	0.028179	-89.621190	8.238525	-7.908995	9.699175	-2.283440	-23.339200	-6.386992	0.000000	0.000000	0.000000	91.207820	88.966340	-172.914600	89.994310	0.632241	89.999400	-5.050823	0.149739	0.023336	179.698200	90.000000	0.000000	-89.616820	88.922030	3.742613	-89.959020	-4.570071	89.996940	3.473267	-0.134051	0.074718	181.821900	-90.000000	0.000000
	14.4525	93.0976	-3.9765	-3.333925	4.237687	1.410070	-89.999990	-90.000000	0.000000	0.014718	0.052296	0.043449	0.050361	0.171967	0.145379	0.000000	0.000000	0.000000	0.000000	0.000000	0.000000	89.997890	-0.049925	-89.328820	-25.703740	-0.924459	8.221201	1.464522	16.297660	-6.108819	0.000000	0.000000	0.000000	-89.998830	0.026213	-89.647600	8.023187	-7.830198	10.623050	-3.027234	-29.150420	-6.716331	0.000000	0.000000	0.000000	89.887890	88.915850	-171.365600	89.996360	0.402705	89.999620	-4.779597	-0.102024	-0.083512	179.465600	90.000000	0.000000	-89.256190	88.935030	3.574422	-89.961190	-4.328382	89.997020	3.137674	-0.263690	0.135347	181.995000	-90.000000	0.000000
